<svg xmlns="http://www.w3.org/2000/svg" width="60" height="66" fill="none"><path fill="#080611" d="M28.182 58.727 30 57.212v-.606l-23.333-.303L0 57.515l1.818 1.212z"/><path fill="url(#a)" d="M23.941 58.121 26.365 56H22.73l-2.121 2.121z"/><path fill="url(#b)" d="M19.699 58.121 21.819 56h-3.333l-2.12 2.121z"/><path fill="#080611" d="M31.818 58.727 30 57.212v-.606l23.333-.303L60 57.515l-1.818 1.212z"/><path fill="url(#c)" d="M36.059 58.121 33.635 56h3.636l2.121 2.121z"/><path fill="url(#d)" d="M40.301 58.121 38.181 56h3.333l2.12 2.121z"/><path fill="url(#e)" stroke="#000" stroke-width=".1" d="m4 36 5.8 3.867V65s-.967 0-2.578-1.289-2.9-3.222-2.9-3.222z"/><g filter="url(#f)"><path fill="url(#g)" d="M5.291 58.556v-17.4l2.256 3.222v16.433s-1.134-.41-1.612-.966c-.366-.428-.644-1.29-.644-1.29"/></g><path stroke="#1F1226" stroke-width=".1" d="M5.291 58.556v-17.4l2.256 3.222v16.433s-1.134-.41-1.612-.966c-.366-.428-.644-1.29-.644-1.29Z"/><path fill="url(#h)" stroke="#242843" stroke-width=".1" d="M5.933 39.544C4.644 37.934 4 36 4 36l5.8 3.867V65l-1.289-.453V42.444s-1.289-1.288-2.578-2.9Z"/><path fill="url(#i)" stroke="#000" stroke-width=".1" d="M56.8 36 51 39.867V65s.967 0 2.579-1.289c1.61-1.289 2.9-3.222 2.9-3.222z"/><g filter="url(#j)"><path fill="url(#k)" d="M55.51 58.556v-17.4l-2.256 3.222v16.433s1.134-.41 1.611-.966c.367-.428.645-1.29.645-1.29"/></g><path stroke="#1F1226" stroke-width=".1" d="M55.51 58.556v-17.4l-2.256 3.222v16.433s1.134-.41 1.611-.966c.367-.428.645-1.29.645-1.29Z"/><path fill="url(#l)" stroke="#242843" stroke-width=".1" d="M54.867 39.544c1.29-1.61 1.934-3.544 1.934-3.544L51 39.867V65l1.289-.453V42.444s1.289-1.288 2.577-2.9Z"/><path fill="#080611" d="m29.015 11 1.485 1.515v.606l-19.056.303L6 12.212 7.485 11z"/><path fill="url(#m)" d="m25.552 11.606 1.98 2.121h-2.97l-1.733-2.12z"/><path fill="url(#n)" d="m22.087 11.606 1.732 2.121h-2.722l-1.732-2.12z"/><path fill="#080611" d="M31.985 11 30.5 12.515v.606l19.056.303L55 12.212 53.515 11z"/><path fill="url(#o)" d="m35.449 11.606-1.98 2.121h2.97l1.732-2.12z"/><path fill="url(#p)" d="m38.913 11.606-1.732 2.121h2.722l1.732-2.12z"/><path fill="#fff" d="M9 14h42.7v42.7H9z"/><path fill="url(#q)" stroke="#2A2647" stroke-width=".1" d="M13 13.5h17.5l-10 .5-11 12v8.5L3 20.5V1z"/><g filter="url(#r)"><path fill="url(#s)" d="M4.5 19.871V7.5L9 13v14.5z"/></g><path stroke="#2B2644" stroke-width=".1" d="M4.5 19.871V7.5L9 13v14.5z"/><path fill="url(#t)" stroke="#2C2947" stroke-width=".1" d="M16.5 12 3 1l10 12.5h9.5z"/><path fill="url(#u)" stroke="#2A2647" stroke-width=".1" d="M47.5 13.5H30l10 .5 11 12v8.5l6.5-14V1z"/><g filter="url(#v)"><path fill="url(#w)" d="M56 19.871V7.5L51.5 13v14.5z"/></g><path stroke="#2B2644" stroke-width=".1" d="M56 19.871V7.5L51.5 13v14.5z"/><path fill="url(#x)" stroke="#2C2947" stroke-width=".1" d="M44 12 57.5 1l-10 12.5H38z"/><defs><linearGradient id="a" x1="21.365" x2="21.365" y1="58.121" y2="56" gradientUnits="userSpaceOnUse"><stop stop-color="#CF1500"/><stop offset="1" stop-color="#FF4816"/></linearGradient><linearGradient id="b" x1="21.365" x2="21.365" y1="58.121" y2="56" gradientUnits="userSpaceOnUse"><stop stop-color="#CF1500"/><stop offset="1" stop-color="#FF4816"/></linearGradient><linearGradient id="c" x1="38.635" x2="38.635" y1="58.121" y2="56" gradientUnits="userSpaceOnUse"><stop stop-color="#CF1500"/><stop offset="1" stop-color="#FF4816"/></linearGradient><linearGradient id="d" x1="38.635" x2="38.635" y1="58.121" y2="56" gradientUnits="userSpaceOnUse"><stop stop-color="#CF1500"/><stop offset="1" stop-color="#FF4816"/></linearGradient><linearGradient id="e" x1="6.9" x2="6.9" y1="36" y2="65" gradientUnits="userSpaceOnUse"><stop stop-color="#1D1A2D"/><stop offset="1" stop-color="#0F0718"/></linearGradient><linearGradient id="g" x1="6.419" x2="6.419" y1="41.156" y2="60.811" gradientUnits="userSpaceOnUse"><stop stop-color="#FE2E0A"/><stop offset="1" stop-color="#FE6222"/></linearGradient><linearGradient id="h" x1="6.9" x2="6.9" y1="36" y2="65" gradientUnits="userSpaceOnUse"><stop stop-color="#26223E"/><stop offset="1" stop-color="#130F21"/></linearGradient><linearGradient id="i" x1="53.901" x2="53.901" y1="36" y2="65" gradientUnits="userSpaceOnUse"><stop stop-color="#1D1A2D"/><stop offset="1" stop-color="#0F0718"/></linearGradient><linearGradient id="k" x1="54.382" x2="54.382" y1="41.156" y2="60.811" gradientUnits="userSpaceOnUse"><stop stop-color="#FE2E0A"/><stop offset="1" stop-color="#FE6222"/></linearGradient><linearGradient id="l" x1="53.901" x2="53.901" y1="36" y2="65" gradientUnits="userSpaceOnUse"><stop stop-color="#26223E"/><stop offset="1" stop-color="#130F21"/></linearGradient><linearGradient id="m" x1="23.448" x2="23.448" y1="11.606" y2="13.727" gradientUnits="userSpaceOnUse"><stop stop-color="#CF1500"/><stop offset="1" stop-color="#FF4816"/></linearGradient><linearGradient id="n" x1="23.448" x2="23.448" y1="11.606" y2="13.727" gradientUnits="userSpaceOnUse"><stop stop-color="#CF1500"/><stop offset="1" stop-color="#FF4816"/></linearGradient><linearGradient id="o" x1="37.552" x2="37.552" y1="11.606" y2="13.727" gradientUnits="userSpaceOnUse"><stop stop-color="#CF1500"/><stop offset="1" stop-color="#FF4816"/></linearGradient><linearGradient id="p" x1="37.552" x2="37.552" y1="11.606" y2="13.727" gradientUnits="userSpaceOnUse"><stop stop-color="#CF1500"/><stop offset="1" stop-color="#FF4816"/></linearGradient><linearGradient id="q" x1="3" x2="11.5" y1="2.5" y2="26" gradientUnits="userSpaceOnUse"><stop stop-color="#18162B"/><stop offset="1" stop-color="#1C1B2F"/></linearGradient><linearGradient id="t" x1="3.5" x2="22" y1="2" y2="13.5" gradientUnits="userSpaceOnUse"><stop stop-color="#2B1E3C"/><stop offset="1" stop-color="#1F0A3C"/></linearGradient><linearGradient id="u" x1="57.5" x2="49" y1="2.5" y2="26" gradientUnits="userSpaceOnUse"><stop stop-color="#18162B"/><stop offset="1" stop-color="#1C1B2F"/></linearGradient><linearGradient id="x" x1="57" x2="38.5" y1="2" y2="13.5" gradientUnits="userSpaceOnUse"><stop stop-color="#2B1E3C"/><stop offset="1" stop-color="#1F0A3C"/></linearGradient><filter id="f" width="4.355" height="19.886" x="5.24" y="40.997" color-interpolation-filters="sRGB" filterUnits="userSpaceOnUse"><feFlood flood-opacity="0" result="BackgroundImageFix"/><feBlend in="SourceGraphic" in2="BackgroundImageFix" result="shape"/><feColorMatrix in="SourceAlpha" result="hardAlpha" values="0 0 0 0 0 0 0 0 0 0 0 0 0 0 0 0 0 0 127 0"/><feOffset dx="2"/><feGaussianBlur stdDeviation="2"/><feComposite in2="hardAlpha" k2="-1" k3="1" operator="arithmetic"/><feColorMatrix values="0 0 0 0 0.913725 0 0 0 0 0.0235294 0 0 0 0 0.0588235 0 0 0 1 0"/><feBlend in2="shape" result="effect1_innerShadow_207_4692"/></filter><filter id="j" width="4.355" height="19.886" x="53.205" y="40.997" color-interpolation-filters="sRGB" filterUnits="userSpaceOnUse"><feFlood flood-opacity="0" result="BackgroundImageFix"/><feBlend in="SourceGraphic" in2="BackgroundImageFix" result="shape"/><feColorMatrix in="SourceAlpha" result="hardAlpha" values="0 0 0 0 0 0 0 0 0 0 0 0 0 0 0 0 0 0 127 0"/><feOffset dx="2"/><feGaussianBlur stdDeviation="2"/><feComposite in2="hardAlpha" k2="-1" k3="1" operator="arithmetic"/><feColorMatrix values="0 0 0 0 0.913725 0 0 0 0 0.0235294 0 0 0 0 0.0588235 0 0 0 1 0"/><feBlend in2="shape" result="effect1_innerShadow_207_4692"/></filter><filter id="r" width="5.602" height="22.123" x="4.449" y="7.36" color-interpolation-filters="sRGB" filterUnits="userSpaceOnUse"><feFlood flood-opacity="0" result="BackgroundImageFix"/><feBlend in="SourceGraphic" in2="BackgroundImageFix" result="shape"/><feColorMatrix in="SourceAlpha" result="hardAlpha" values="0 0 0 0 0 0 0 0 0 0 0 0 0 0 0 0 0 0 127 0"/><feOffset dx="1" dy="2"/><feGaussianBlur stdDeviation=".9"/><feComposite in2="hardAlpha" k2="-1" k3="1" operator="arithmetic"/><feColorMatrix values="0 0 0 0 0.901961 0 0 0 0 0.0509804 0 0 0 0 0.0235294 0 0 0 1 0"/><feBlend in2="shape" result="effect1_innerShadow_207_4692"/></filter><filter id="v" width="5.602" height="22.123" x="51.449" y="7.36" color-interpolation-filters="sRGB" filterUnits="userSpaceOnUse"><feFlood flood-opacity="0" result="BackgroundImageFix"/><feBlend in="SourceGraphic" in2="BackgroundImageFix" result="shape"/><feColorMatrix in="SourceAlpha" result="hardAlpha" values="0 0 0 0 0 0 0 0 0 0 0 0 0 0 0 0 0 0 127 0"/><feOffset dx="1" dy="2"/><feGaussianBlur stdDeviation=".9"/><feComposite in2="hardAlpha" k2="-1" k3="1" operator="arithmetic"/><feColorMatrix values="0 0 0 0 0.901961 0 0 0 0 0.0509804 0 0 0 0 0.0235294 0 0 0 1 0"/><feBlend in2="shape" result="effect1_innerShadow_207_4692"/></filter><radialGradient id="s" cx="0" cy="0" r="1" gradientTransform="matrix(0 10 -2.25 0 6.75 17.5)" gradientUnits="userSpaceOnUse"><stop stop-color="#FF5925"/><stop offset="1" stop-color="#FF2F09"/></radialGradient><radialGradient id="w" cx="0" cy="0" r="1" gradientTransform="matrix(0 10 -2.25 0 53.75 17.5)" gradientUnits="userSpaceOnUse"><stop stop-color="#FF5925"/><stop offset="1" stop-color="#FF2F09"/></radialGradient></defs></svg>